<svg xmlns="http://www.w3.org/2000/svg" xmlns:xlink="http://www.w3.org/1999/xlink" aria-hidden="true" role="img" class="iconify iconify--logos" width="31.88" height="32" preserveAspectRatio="xMidYMid meet" viewBox="0 0 256 257"><defs><linearGradient id="IconifyId181308a3429337a43445" x1="-.828" x2="1.172" y1="-.828" y2="1.172"><stop offset="0" stop-color="#41D1FF"></stop><stop offset="1" stop-color="#BD34FE"></stop></linearGradient><linearGradient id="IconifyId181308a3429337a43446" x1="-.828" x2="1.172" y1="-.828" y2="1.172"><stop offset="0" stop-color="#FFEA83"></stop><stop offset=".08" stop-color="#FFDD35"></stop><stop offset="1" stop-color="#FFA800"></stop></linearGradient></defs><path fill="url(#IconifyId181308a3429337a43445)" d="M255.153 37.342L133.016 256.587a12.13 12.13 0 0 1-22.152-1.29l-42.33-146.46l-4.29-14.863a12.13 12.13 0 0 1 14.39-14.39l14.862 4.29l146.46 42.33a12.13 12.13 0 0 1 1.29 22.153Z"></path><path fill="url(#IconifyId181308a3429337a43446)" d="M42.33 0L.173 121.06a12.13 12.13 0 0 0 13.098 15.528l153.205-29.813a12.13 12.13 0 0 0 9.2-13.098L43.625.197a12.13 12.13 0 0 0-1.296-1.296Z"></path></svg>